<svg width="867" height="306" viewBox="0 0 867 306" fill="none" xmlns="http://www.w3.org/2000/svg">
<g clip-path="url(#clip0)">
<path d="M443 78.4805H428.25V145.52H443V78.4805Z" fill="white"/>
<path d="M527.05 106.93V136C519.1 142.893 508.922 146.673 498.4 146.64C477.52 146.64 463.16 131.98 463.16 111.97C463.16 92.9096 478 77.3096 498.31 77.3096C510.38 77.3096 517.66 80.5596 524.65 86.4996L515.35 97.7096C510.18 93.3996 505.59 90.8896 497.83 90.8896C487.1 90.8896 478.57 100.39 478.57 111.97C478.57 124.22 487.01 133.23 498.89 133.23C503.819 133.384 508.671 131.984 512.76 129.23V106.93H527.05Z" fill="white"/>
<path d="M564.34 78.4805H549.59V145.52H564.34V78.4805Z" fill="white"/>
<path d="M584.699 92.0805H605.099V145.52H619.849V92.0805H640.249V78.4805H584.699V92.0805Z" fill="white"/>
<path d="M689.109 78H675.519L646.789 145.51H661.789L667.279 132.01L667.919 130.47L673.199 117.47L673.619 116.47L682.109 95.71L690.109 115.32L690.989 117.46L696.249 130.46L697.019 132.33L702.379 145.5H717.789L689.109 78Z" fill="white"/>
<path d="M752.551 132.11V78.4805H737.801V145.52H785.971V132.11H752.551Z" fill="white"/>
<path d="M346.328 78.4805H372.468C393.538 78.4805 408.098 93.0005 408.098 112C408.098 130.87 393.538 145.52 372.468 145.52H346.328V78.4805ZM372.468 132.21C384.538 132.21 392.678 124.07 392.678 112C392.678 100.13 384.538 91.8005 372.468 91.8005H361.068V132.21H372.468Z" fill="white"/>
<path d="M346.352 160.25H373.552C389.442 160.25 399.052 169.67 399.052 183.46C399.052 198.87 387.052 206.86 372.132 206.86H361.002V226.86H346.352V160.25ZM372.602 193.83C379.932 193.83 384.212 189.46 384.212 183.56C384.212 176.99 379.642 173.47 372.322 173.47H361.002V193.83H372.602Z" fill="white"/>
<path d="M422.262 160.25H452.702C461.162 160.25 467.702 162.63 472.102 167.01C475.812 170.72 477.812 175.95 477.812 182.42C477.812 193.16 472.012 199.92 463.542 203.06L479.812 226.84H462.682L448.222 205.53H436.902V226.84H422.262V160.25ZM451.742 192.59C458.882 192.59 462.972 188.79 462.972 182.99C462.972 176.71 458.592 173.47 451.462 173.47H436.902V192.59H451.742Z" fill="white"/>
<path d="M503.391 160.25H553.621V173.25H518.001V186.76H549.391V199.76H518.001V213.76H554.101V226.76H503.391V160.25Z" fill="white"/>
<path d="M574.93 217.14L583.58 206.77C589.58 211.71 595.85 214.85 603.46 214.85C609.46 214.85 613.07 212.47 613.07 208.38C613.07 204.67 610.79 202.77 599.66 199.92C586.25 196.49 577.59 192.78 577.59 179.37C577.59 167.29 587.29 159.3 600.9 159.3C609.878 159.154 618.626 162.15 625.63 167.77L618.02 178.77C612.12 174.68 606.32 172.21 600.71 172.21C595.1 172.21 592.14 174.78 592.14 178.21C592.14 182.59 595 184.01 606.51 186.96C620.01 190.48 627.63 195.33 627.63 207.13C627.63 220.35 617.54 227.77 603.18 227.77C592.777 227.815 582.722 224.031 574.93 217.14V217.14Z" fill="white"/>
<path d="M652.738 160.25H702.998V173.25H667.288V186.76H698.678V199.76H667.288V213.76H703.438V226.76H652.738V160.25Z" fill="white"/>
<path d="M728.828 160.25H742.338L773.538 201.25V160.25H787.998V226.84H775.538L743.288 184.51V226.84H728.828V160.25Z" fill="white"/>
<path d="M831.85 173.76H811.59V160.25H866.76V173.76H846.5V226.84H831.85V173.76Z" fill="white"/>
<path d="M189.488 100.21H183.658H166.488L178.638 112.37L182.728 116.46H182.738L201.548 135.28V118.11L199.908 116.46L195.808 112.37H201.548V112.28V100.21H189.488Z" fill="url(#paint0_linear)"/>
<path d="M259.278 114.31C261.101 110.623 262.355 106.682 262.998 102.62C256.874 101 250.564 100.189 244.228 100.21H205.648V116.46H205.728L217.798 128.53V112.37H244.218C249.303 112.341 254.368 112.993 259.278 114.31V114.31Z" fill="url(#paint1_linear)"/>
<path d="M129.56 216.76H135.35H152.56L140.41 204.61L136.32 200.52L117.5 181.7V198.87L119.1 200.52L123.19 204.61H117.5H117.41L117.5 204.69V216.76H129.56Z" fill="url(#paint2_linear)"/>
<path d="M306.158 158.49C306.158 138.74 297.218 121.86 282.158 111.44C281 110.588 279.788 109.813 278.528 109.12C274.856 106.924 270.952 105.14 266.888 103.8C266.196 107.881 264.93 111.843 263.128 115.57C262.579 116.838 261.944 118.068 261.228 119.25C258.696 123.622 255.592 127.638 251.998 131.19L236.238 147L244.848 155.61L260.628 139.83C265.099 135.394 268.959 130.384 272.108 124.93C272.828 123.75 273.458 122.52 274.108 121.3C275.244 122.073 276.33 122.918 277.358 123.83C287.068 132.23 292.548 144.55 292.548 158.52C292.548 172.49 287.108 184.85 277.488 193.21C279.512 197.108 281.124 201.207 282.298 205.44C297.218 194.86 306.158 178 306.158 158.49Z" fill="url(#paint3_linear)"/>
<path d="M217.801 188.41V182.58V165.41L205.651 177.56L201.551 181.66L182.691 200.52H199.911L201.551 198.83L205.651 194.74V200.52V200.56L205.691 200.52H217.801V188.41Z" fill="url(#paint4_linear)"/>
<path d="M113.361 73.7599C113.343 68.6961 113.995 63.6522 115.301 58.7599C111.61 56.9682 107.668 55.7444 103.611 55.1299C102.007 61.219 101.214 67.4932 101.251 73.7899V112.4H117.501V112.31L129.571 100.24H113.361V73.7599Z" fill="url(#paint5_linear)"/>
<path d="M101.248 200.52V204.61H74.7881C69.72 204.636 64.6725 203.963 59.7881 202.61C57.9685 206.311 56.7178 210.266 56.0781 214.34C62.1898 215.955 68.4867 216.762 74.8081 216.74H113.378V200.52L101.308 188.45L101.248 200.52Z" fill="url(#paint6_linear)"/>
<path d="M217.798 157.35V151.53L221.888 155.62V155.53L230.418 146.97L205.648 122.2V139.37V145.2V171.78L217.798 159.63V157.35Z" fill="url(#paint7_linear)"/>
<path d="M205.648 243.18C205.677 248.249 205.004 253.297 203.648 258.18C207.361 260.006 211.335 261.244 215.428 261.85C217.01 255.747 217.803 249.466 217.788 243.16V204.61H201.548V204.7L189.488 216.76H205.648V243.18Z" fill="url(#paint8_linear)"/>
<path d="M139.481 96.0796L135.351 100.21L123.191 112.37H140.371H146.191H172.861L160.711 100.21H158.341H152.521L156.611 96.1196L156.661 96.0796H156.571L148.051 87.5596L139.481 96.0796Z" fill="url(#paint9_linear)"/>
<path d="M178.182 57.3802L162.442 73.1702L159.532 76.0802L150.922 84.6402L159.532 93.2502L162.352 96.0802L162.442 96.1602V96.0802H179.492L171.002 87.5502L168.092 84.6402L171.002 81.7302L186.792 66.0002C190.342 62.387 194.381 59.2901 198.792 56.8002C197.46 52.9002 195.537 49.2275 193.092 45.9102C187.643 49.0675 182.631 52.9235 178.182 57.3802V57.3802Z" fill="url(#paint10_linear)"/>
<path d="M140.831 259.59L159.531 240.9L168.131 232.33L159.531 223.73L156.661 220.86V220.81L156.581 220.86H139.441L148.011 229.42L149.571 230.98L150.921 232.29L148.001 235.2L132.221 251C128.67 254.583 124.654 257.674 120.281 260.19C121.613 264.102 123.535 267.788 125.981 271.12C131.418 267.948 136.411 264.071 140.831 259.59V259.59Z" fill="url(#paint11_linear)"/>
<path d="M230.421 170L233.331 167.08L236.241 170L252.001 185.75C255.612 189.311 258.72 193.349 261.241 197.75C265.14 196.409 268.807 194.469 272.111 192C268.961 186.559 265.1 181.561 260.631 177.14L233.331 149.84L224.761 158.45L223.411 159.76L221.891 161.28V161.36V178.41L230.421 170Z" fill="url(#paint12_linear)"/>
<path d="M88.5892 147L85.6792 149.87L82.8092 147L66.9992 131.19C63.4023 127.638 60.2949 123.623 57.7592 119.25C53.8864 120.583 50.2408 122.502 46.9492 124.94C50.109 130.372 53.965 135.367 58.4192 139.8L74.1992 155.58L76.3992 157.81L77.0692 158.49L85.6792 167.05L94.2892 158.49L97.1192 155.62V155.57V138.57L88.5892 147Z" fill="url(#paint13_linear)"/>
<path d="M119.1 116.46L117.5 118.11L113.36 122.24V116.46H113.32H101.25V128.53V134.35V151.48L136.28 116.46H119.1Z" fill="url(#paint14_linear)"/>
<path d="M179.57 220.86L183.66 216.76L195.81 204.61H178.6H172.78H146.23L158.39 216.76H160.62H166.45L162.4 220.81L162.35 220.86H162.48L171 229.42L179.57 220.86Z" fill="url(#paint15_linear)"/>
<path d="M52.0916 213.18C52.7671 209.079 54.0336 205.098 55.8516 201.36C56.3916 200.14 57.0316 198.91 57.7016 197.73C60.2696 193.348 63.392 189.314 66.9916 185.73L82.7716 170L74.2016 161.4L58.4216 177.18C53.9546 181.599 50.082 186.581 46.9016 192C46.2316 193.22 45.5516 194.44 44.9616 195.67C43.8171 194.873 42.7187 194.012 41.6716 193.09C32.0016 184.7 26.5216 172.37 26.5216 158.45C26.5216 144.35 31.9616 132.08 41.5816 123.72C39.5572 119.836 37.9451 115.75 36.7716 111.53C21.7916 122 12.8516 139 12.8516 158.49C12.8516 178.19 21.8516 195.12 36.8516 205.49C38.0186 206.324 39.2268 207.098 40.4716 207.81C44.144 210.006 48.0391 211.806 52.0916 213.18V213.18Z" fill="url(#paint16_linear)"/>
<path d="M202.48 54.8499C202.96 56.1199 203.37 57.4152 203.71 58.7299C205.016 63.6223 205.668 68.6662 205.65 73.7299V96.0799H217.8V73.7599C217.824 67.4614 217.017 61.1872 215.4 55.0999C215.06 53.7499 214.64 52.4499 214.21 51.0999C215.606 50.8622 217.015 50.7052 218.43 50.6299C231.18 49.7499 243.71 54.5599 253.54 64.3899C263.37 74.2199 268.35 86.8799 267.42 99.5799C271.612 100.907 275.657 102.663 279.49 104.82C282.66 86.8199 277 68.5299 263.21 54.7299C249.42 40.9299 231.05 35.1899 213.07 38.3999C211.64 38.6499 210.2 38.9499 208.77 39.3199C204.622 40.3828 200.599 41.8846 196.77 43.7999C199.174 47.2021 201.095 50.9207 202.48 54.8499V54.8499Z" fill="url(#paint17_linear)"/>
<path d="M116.529 262.13C116.049 260.843 115.638 259.532 115.299 258.2C113.989 253.309 113.336 248.264 113.359 243.2V220.86H101.249V243.18C101.225 249.489 102.036 255.774 103.659 261.87C103.989 263.22 104.419 264.53 104.839 265.87C103.449 266.08 102.009 266.25 100.619 266.33C87.8689 267.22 75.2989 262.41 65.4689 252.58C55.6389 242.75 50.6989 230.09 51.5789 217.38C47.3957 216.024 43.3562 214.259 39.5189 212.11C36.3889 230.11 42.0089 248.4 55.7989 262.2C69.5889 276 87.9989 281.71 105.929 278.54C107.397 278.289 108.849 277.956 110.279 277.54C114.394 276.498 118.384 275.012 122.179 273.11C119.8 269.727 117.899 266.033 116.529 262.13Z" fill="url(#paint18_linear)"/>
<path d="M278.56 207.78C277.523 203.632 276.038 199.608 274.13 195.78C270.768 198.171 267.094 200.089 263.21 201.48C261.9 201.94 260.59 202.36 259.21 202.7C254.32 204.019 249.275 204.672 244.21 204.64H221.89V216.79H244.22C250.516 216.815 256.786 216.008 262.87 214.39C264.241 214.051 265.593 213.641 266.92 213.16C267.17 214.542 267.337 215.938 267.42 217.34C268.35 230.09 263.54 242.62 253.58 252.58C243.62 262.54 231.18 267.22 218.39 266.33C217.046 270.584 215.263 274.686 213.07 278.57C231.07 281.74 249.28 276.12 263.21 262.2C277.14 248.28 282.66 230.13 279.49 212.11C279.24 210.64 278.94 209.21 278.56 207.78Z" fill="url(#paint19_linear)"/>
<path d="M40.4384 109.2C41.5214 113.341 43.0225 117.362 44.9184 121.2C48.2677 118.822 51.9289 116.917 55.7984 115.54C57.1084 115.08 58.4184 114.66 59.7984 114.28C64.6941 112.995 69.7369 112.356 74.7984 112.38H97.1184V100.21H74.7884C68.5061 100.191 62.2488 101.001 56.1784 102.62C54.7884 102.96 53.4384 103.38 52.0884 103.84C51.842 102.43 51.6718 101.008 51.5784 99.5798C50.6984 86.8798 55.5784 74.3498 65.4684 64.4298C75.3584 54.5098 87.8284 49.7898 100.578 50.6698C101.92 46.4138 103.713 42.3137 105.928 38.4398C87.9284 35.2298 69.7284 40.8398 55.7984 54.7698C41.8684 68.6998 36.3884 86.8398 39.5184 104.86C39.7684 106.29 40.1084 107.77 40.4384 109.2Z" fill="url(#paint20_linear)"/>
<path d="M202.442 262.13C201.185 261.563 199.96 260.929 198.772 260.23C194.373 257.706 190.336 254.597 186.772 250.99L171.002 235.2L162.442 243.81L178.222 259.59C182.642 264.068 187.635 267.942 193.072 271.11C194.302 271.83 195.522 272.51 196.742 273.11C195.942 274.25 195.062 275.3 194.172 276.36C185.772 286.02 173.452 291.51 159.532 291.51C145.432 291.51 133.152 286.06 124.752 276.44C120.876 278.442 116.804 280.041 112.602 281.21C123.072 296.21 139.992 305.14 159.532 305.14C179.232 305.14 196.072 296.19 206.532 281.25C207.361 280.085 208.123 278.873 208.812 277.62C211.048 273.905 212.876 269.959 214.262 265.85C210.173 265.143 206.198 263.892 202.442 262.13Z" fill="url(#paint21_linear)"/>
<path d="M113.36 177.56V171.78V145.2L101.25 157.31V159.67V165.45L97.1998 161.4L97.1199 161.32V161.44L88.5898 169.97L97.1199 178.49L101.25 182.63L113.36 194.74V177.56Z" fill="url(#paint22_linear)"/>
<path d="M116.569 54.85C117.839 55.4156 119.078 56.0498 120.279 56.75C124.658 59.2814 128.674 62.3929 132.219 66L148.049 81.82L156.609 73.22L140.829 57.38C136.409 52.9096 131.424 49.0367 125.999 45.86C124.769 45.15 123.549 44.47 122.329 43.86C123.129 42.72 124.019 41.62 124.899 40.57C133.299 30.95 145.619 25.46 159.549 25.46C173.639 25.46 185.919 30.95 194.269 40.57C198.171 38.5369 202.273 36.9116 206.509 35.72C195.959 20.72 179.039 11.79 159.509 11.79C139.759 11.79 122.879 20.79 112.509 35.72C111.669 36.8686 110.894 38.0639 110.189 39.3C107.948 43.0233 106.137 46.9886 104.789 51.12C108.865 51.8323 112.826 53.0867 116.569 54.85V54.85Z" fill="url(#paint23_linear)"/>
<path d="M155.6 135.17H141.34V181.77H155.6C168.68 181.77 177.71 172.77 177.71 158.47C177.71 144.17 168.68 135.17 155.6 135.17V135.17Z" fill="url(#paint24_linear)"/>
</g>
<defs>
<linearGradient id="paint0_linear" x1="26.5983" y1="287.01" x2="317.848" y2="-26.15" gradientUnits="userSpaceOnUse">
<stop stop-color="#BF0077"/>
<stop offset="1" stop-color="#E01E42"/>
</linearGradient>
<linearGradient id="paint1_linear" x1="2920.6" y1="8775.03" x2="9194.07" y2="-4884.24" gradientUnits="userSpaceOnUse">
<stop stop-color="#BF0077"/>
<stop offset="1" stop-color="#E01E42"/>
</linearGradient>
<linearGradient id="paint2_linear" x1="1557.15" y1="10712.7" x2="11766.8" y2="-292.822" gradientUnits="userSpaceOnUse">
<stop stop-color="#BF0077"/>
<stop offset="1" stop-color="#E01E42"/>
</linearGradient>
<linearGradient id="paint3_linear" x1="6808.02" y1="35646.3" x2="35188.4" y2="14654.2" gradientUnits="userSpaceOnUse">
<stop stop-color="#BF0077"/>
<stop offset="1" stop-color="#E01E42"/>
</linearGradient>
<linearGradient id="paint4_linear" x1="2871.42" y1="11887.6" x2="13109.7" y2="891.635" gradientUnits="userSpaceOnUse">
<stop stop-color="#BF0077"/>
<stop offset="1" stop-color="#E01E42"/>
</linearGradient>
<linearGradient id="paint5_linear" x1="-735.643" y1="13501.6" x2="13129.2" y2="6129.29" gradientUnits="userSpaceOnUse">
<stop stop-color="#BF0077"/>
<stop offset="1" stop-color="#E01E42"/>
</linearGradient>
<linearGradient id="paint6_linear" x1="1213.54" y1="8139.76" x2="7479.27" y2="-5505.67" gradientUnits="userSpaceOnUse">
<stop stop-color="#BF0077"/>
<stop offset="1" stop-color="#E01E42"/>
</linearGradient>
<linearGradient id="paint7_linear" x1="1524.16" y1="15580.3" x2="13595.6" y2="9095.73" gradientUnits="userSpaceOnUse">
<stop stop-color="#BF0077"/>
<stop offset="1" stop-color="#E01E42"/>
</linearGradient>
<linearGradient id="paint8_linear" x1="2937.72" y1="20386.9" x2="16793.6" y2="13021" gradientUnits="userSpaceOnUse">
<stop stop-color="#BF0077"/>
<stop offset="1" stop-color="#E01E42"/>
</linearGradient>
<linearGradient id="paint9_linear" x1="352.667" y1="6701.16" x2="5889.13" y2="-5216.74" gradientUnits="userSpaceOnUse">
<stop stop-color="#BF0077"/>
<stop offset="1" stop-color="#E01E42"/>
</linearGradient>
<linearGradient id="paint10_linear" x1="287.83" y1="13358.6" x2="14957.4" y2="-1666.94" gradientUnits="userSpaceOnUse">
<stop stop-color="#BF0077"/>
<stop offset="1" stop-color="#E01E42"/>
</linearGradient>
<linearGradient id="paint11_linear" x1="3214.74" y1="16441.8" x2="17902.4" y2="1421.39" gradientUnits="userSpaceOnUse">
<stop stop-color="#BF0077"/>
<stop offset="1" stop-color="#E01E42"/>
</linearGradient>
<linearGradient id="paint12_linear" x1="4729.64" y1="16714.7" x2="18620.6" y2="1058.59" gradientUnits="userSpaceOnUse">
<stop stop-color="#BF0077"/>
<stop offset="1" stop-color="#E01E42"/>
</linearGradient>
<linearGradient id="paint13_linear" x1="-1067.33" y1="11668.2" x2="12789.6" y2="-3969.9" gradientUnits="userSpaceOnUse">
<stop stop-color="#BF0077"/>
<stop offset="1" stop-color="#E01E42"/>
</linearGradient>
<linearGradient id="paint14_linear" x1="-215.071" y1="9006.99" x2="9984.29" y2="-1962.78" gradientUnits="userSpaceOnUse">
<stop stop-color="#BF0077"/>
<stop offset="1" stop-color="#E01E42"/>
</linearGradient>
<linearGradient id="paint15_linear" x1="3267.29" y1="8164.15" x2="8810.22" y2="-3746.06" gradientUnits="userSpaceOnUse">
<stop stop-color="#BF0077"/>
<stop offset="1" stop-color="#E01E42"/>
</linearGradient>
<linearGradient id="paint16_linear" x1="-1837.23" y1="24270.7" x2="26545.1" y2="3279.22" gradientUnits="userSpaceOnUse">
<stop stop-color="#BF0077"/>
<stop offset="1" stop-color="#E01E42"/>
</linearGradient>
<linearGradient id="paint17_linear" x1="3035.9" y1="19811.7" x2="21890.7" y2="-5369.15" gradientUnits="userSpaceOnUse">
<stop stop-color="#BF0077"/>
<stop offset="1" stop-color="#E01E42"/>
</linearGradient>
<linearGradient id="paint18_linear" x1="2840.2" y1="19957.7" x2="21697.8" y2="-5206.36" gradientUnits="userSpaceOnUse">
<stop stop-color="#BF0077"/>
<stop offset="1" stop-color="#E01E42"/>
</linearGradient>
<linearGradient id="paint19_linear" x1="7996.39" y1="31133.9" x2="32168.7" y2="10226.7" gradientUnits="userSpaceOnUse">
<stop stop-color="#BF0077"/>
<stop offset="1" stop-color="#E01E42"/>
</linearGradient>
<linearGradient id="paint20_linear" x1="-3199.44" y1="18229.1" x2="20968.7" y2="-2668.88" gradientUnits="userSpaceOnUse">
<stop stop-color="#BF0077"/>
<stop offset="1" stop-color="#E01E42"/>
</linearGradient>
<linearGradient id="paint21_linear" x1="9791.65" y1="24771.6" x2="28335.6" y2="-4210.42" gradientUnits="userSpaceOnUse">
<stop stop-color="#BF0077"/>
<stop offset="1" stop-color="#E01E42"/>
</linearGradient>
<linearGradient id="paint22_linear" x1="442.553" y1="13796.4" x2="12509.6" y2="7309.03" gradientUnits="userSpaceOnUse">
<stop stop-color="#BF0077"/>
<stop offset="1" stop-color="#E01E42"/>
</linearGradient>
<linearGradient id="paint23_linear" x1="-2708.79" y1="16577.4" x2="15865.3" y2="-12430.5" gradientUnits="userSpaceOnUse">
<stop stop-color="#BF0077"/>
<stop offset="1" stop-color="#E01E42"/>
</linearGradient>
<linearGradient id="paint24_linear" x1="1252.44" y1="13681.3" x2="14653.9" y2="2435.01" gradientUnits="userSpaceOnUse">
<stop stop-color="#BF0077"/>
<stop offset="1" stop-color="#E01E42"/>
</linearGradient>
<clipPath id="clip0">
<rect width="866.76" height="305.13" fill="white"/>
</clipPath>
</defs>
</svg>
